<?xml version="1.0" encoding="utf-8"?>
<!-- Generator: Adobe Illustrator 22.1.0, SVG Export Plug-In . SVG Version: 6.00 Build 0)  -->
<svg version="1.1" id="Layer_1" xmlns="http://www.w3.org/2000/svg" xmlns:xlink="http://www.w3.org/1999/xlink" x="0px" y="0px"
	 viewBox="0 0 150.5 143" style="enable-background:new 0 0 150.5 143;" xml:space="preserve">
<style type="text/css">
	.st0{fill:url(#SVGID_1_);}
	.st1{fill:#F6F3DB;}
	.st2{opacity:0.41;}
	.st3{opacity:0.75;}
	.st4{fill:#3A7F3E;}
</style>
<title>Asset 1</title>
<g id="Layer_2_1_">
	<g id="Layer_1-2">
		<g>
			
				<radialGradient id="SVGID_1_" cx="71.01" cy="72.3367" r="70.08" gradientTransform="matrix(1 0 0 -1 0 144.3333)" gradientUnits="userSpaceOnUse">
				<stop  offset="0.8" style="stop-color:#919496"/>
				<stop  offset="0.98" style="stop-color:#919496"/>
				<stop  offset="1" style="stop-color:#919496"/>
			</radialGradient>
			<path class="st0" d="M141.1,72c0,38.7-31.4,70.1-70.1,70.1S0.9,110.7,0.9,72C0.9,33.3,32.3,1.9,71,1.9h0
				C109.7,1.9,141.1,33.3,141.1,72C141.1,72,141.1,72,141.1,72z"/>
		</g>
		<path class="st1" d="M146.7,63.2c4.3,38.4-23,72.9-60.9,77.2S13.5,116.9,9.2,78.6s23-72.9,61-77.2S142.4,24.8,146.7,63.2z"/>
		<g class="st2">
			
				<image style="overflow:visible;enable-background:new    ;" width="883" height="872" xlink:href="D800F6F611FCB27F.png"  transform="matrix(0.24 0 0 0.24 -27.5 -32.8333)">
			</image>
		</g>
		<g class="st3">
			
				<image style="overflow:visible;enable-background:new    ;" width="875" height="841" xlink:href="D800F6F611FCB27A.png"  transform="matrix(0.24 0 0 0.24 -26.78 -29.4733)">
			</image>
		</g>
		<path class="st4" d="M29.3,102.2c0.4,2.8,2.5,3.3,4.9,2.9c1.4-0.2,3.4-1.3,3.1-3.3c-0.2-1.5-1.8-1.9-3.1-2l-3.1-0.3
			c-1.6-0.2-3.2-0.7-3.5-2.8c-0.2-1.3,0.3-3.9,4-4.5c2.7-0.4,5.2,0.7,5.6,3.4l-1.3,0.2c-0.4-2-2.2-2.8-4.1-2.5s-3.3,1.2-3,3.2
			c0.2,1.3,1.2,1.6,2.3,1.7l3.4,0.3c2,0.2,3.7,0.8,4,3c0.1,0.9,0.2,3.9-4.6,4.6c-3.2,0.5-5.7-0.6-6.1-3.9L29.3,102.2z"/>
		<path class="st4" d="M42.6,90.9l1.4-0.2l7.3,12.6l-1.4,0.2l-2.3-3.9l-6.1,0.9l-1,4.4l-1.4,0.2L42.6,90.9z M41.8,99.4l5.3-0.8
			l-3.6-6.5L41.8,99.4z"/>
		<path class="st4" d="M50.1,89.8l1.3-0.2l1.9,12.3l7.5-1.1l0.2,1.1l-8.8,1.3L50.1,89.8z"/>
		<path class="st4" d="M59.6,88.3l1.3-0.2l1.3,8.3c0.4,3.1,2.1,4.1,4.6,3.7s3.8-1.8,3.3-4.9L68.8,87l1.3-0.2l1.3,8.6
			c0.4,2.8-0.7,5.3-4.4,5.9s-5.6-1.6-6-4.3L59.6,88.3z"/>
		<path class="st4" d="M72.2,86.4l4.7-0.7c4.1-0.5,6.5,1.4,7.2,5.8s-1.1,6.9-5.2,7.7l-4.7,0.7L72.2,86.4z M75.3,98.6l2.7-0.4
			c3.9-0.6,5.3-2.5,4.7-6.5s-2.5-5.4-6.4-4.8l-2.7,0.4L75.3,98.6z"/>
		<path class="st4" d="M88.5,84l1.4-0.2l7.3,12.6l-1.4,0.2l-2.3-3.9l-6.1,0.9l-1,4.4l-1.4,0.2L88.5,84z M87.7,92.4l5.3-0.8l-3.6-6.5
			L87.7,92.4z"/>
		<path class="st4" d="M96,82.8l5.7-0.9c2.2-0.3,4.4,0.1,4.8,2.6c0.2,1.4-0.5,2.8-1.9,3.4l0,0c1.7-0.1,3.2,1.2,3.3,2.8
			c0.2,1.3,0.1,3.9-4.2,4.6L98,96.2L96,82.8z M98.2,88.5l4.4-0.7c2.1-0.3,2.9-1.5,2.7-2.7c-0.2-1.7-1.4-2.4-3.4-2.1l-4.4,0.7
			L98.2,88.5z M99.2,95l4.4-0.7c1.9-0.3,3.4-1.2,3.1-3.3c-0.3-1.7-1.7-2.4-3.9-2.1l-4.4,0.7L99.2,95z"/>
		<path class="st4" d="M108.1,81l1.3-0.2l1.9,12.4l7.5-1.2l0.2,1.1l-8.8,1.3L108.1,81z"/>
		<path class="st4" d="M117.7,79.5l9.3-1.4l0.2,1.1l-8,1.2l0.7,4.9l7.5-1.1l0.2,1.1l-7.5,1.1l0.8,5.3l8.1-1.2l0.2,1.1l-9.4,1.4
			L117.7,79.5z"/>
		<path class="st4" d="M128.3,77.9l2.5-0.4l0.1,0.5l-1,0.2l0.4,2.7l-0.5,0.1l-0.4-2.7l-1,0.2L128.3,77.9z"/>
		<path class="st4" d="M131.2,77.5l0.8-0.1l1.2,2.3l0,0l0.5-2.6l0.8-0.1l0.5,3.1l-0.5,0.1l-0.4-2.4l0,0l-0.5,2.6l-0.4,0.1l-1.2-2.3
			l0,0l0.4,2.4l-0.5,0.1L131.2,77.5z"/>
		<path class="st4" d="M28.7,56c-0.4-1.1-1.6-1.8-2.7-1.6c-2.2,0.3-2.7,2.3-2.4,4.3s1.4,3.6,3.6,3.3c1.4-0.2,2.3-1.5,2.1-2.8
			c0,0,0,0,0,0l2.4-0.4c0.3,2.6-1.5,5-4.1,5.3c0,0,0,0,0,0c-3.4,0.5-5.8-1.7-6.3-4.9s1.1-6.2,4.6-6.7c2.4-0.5,4.8,0.9,5.4,3.3
			L28.7,56z"/>
		<path class="st4" d="M37.2,50.6c3.4-0.5,5.8,1.7,6.3,5s-1.1,6.1-4.6,6.6s-5.8-1.7-6.3-4.9S33.8,51.2,37.2,50.6z M38.6,60.2
			c2.2-0.3,2.7-2.3,2.4-4.2s-1.4-3.7-3.6-3.3S34.8,55,35.1,57S36.5,60.6,38.6,60.2z"/>
		<path class="st4" d="M44.3,49.8l3.4-0.5l3.7,7.2l0,0l1.3-8l3.4-0.5L58,59.2l-2.3,0.3l-1.2-7.9l0,0L53,59.9l-1.9,0.3l-3.9-7.4l0,0
			l1.2,7.8l-2.3,0.3L44.3,49.8z"/>
		<path class="st4" d="M58.4,47.7l5-0.8c2.8-0.4,4.1,1.2,4.4,3s-0.5,3.7-3.3,4.1L62,54.5l0.6,4l-2.4,0.4L58.4,47.7z M61.7,52.6
			l1.9-0.3c1.1-0.2,2.1-0.6,1.9-2s-1.3-1.5-2.4-1.3l-1.9,0.3L61.7,52.6z"/>
		<path class="st4" d="M68.8,46.2l6-0.9c1.7-0.4,3.3,0.7,3.7,2.4c0,0.1,0,0.1,0,0.2c0.3,1.2-0.3,2.4-1.3,3l0,0
			c1.2,0.1,1.8,1.2,2,2.3c0.1,0.9,0.4,1.8,0.9,2.6l-2.4,0.4c-0.4-0.8-0.6-1.7-0.8-2.6c-0.3-1.1-0.9-1.6-2.1-1.4l-2.4,0.4l0.7,4.3
			l-2.4,0.4L68.8,46.2z M72,50.8l2.7-0.4c1.1-0.2,1.6-0.7,1.4-1.8s-0.8-1.4-1.9-1.3l-2.7,0.4L72,50.8z"/>
		<path class="st4" d="M84.9,43.4c3.4-0.5,5.8,1.7,6.3,5s-1.1,6.1-4.6,6.6s-5.8-1.7-6.3-4.9S81.5,43.9,84.9,43.4z M86.4,53
			c2.2-0.3,2.7-2.3,2.4-4.2s-1.4-3.7-3.6-3.3s-2.7,2.3-2.4,4.3S84.2,53.3,86.4,53z"/>
		<path class="st4" d="M92.1,42.6l3.4-0.5l3.8,7.2l0,0l1.3-8l3.4-0.5l1.7,11.1l-2.3,0.3l-1.2-7.9l0,0l-1.5,8.3l-1.9,0.3l-3.9-7.4
			l0,0l1.2,7.8l-2.3,0.3L92.1,42.6z"/>
		<path class="st4" d="M106.2,40.5l2.4-0.4l1.7,11.1l-2.4,0.4L106.2,40.5z"/>
		<path class="st4" d="M113.5,46.9c0.2,1.5,1.5,1.9,2.8,1.7c0.9-0.1,2.1-0.6,1.9-1.7s-1.9-1.1-3.6-1.3s-3.5-0.6-3.8-2.7
			c-0.3-2.3,1.6-3.7,3.6-4c2.3-0.3,4.6,0.3,5,2.9l-2.4,0.4c-0.3-1.3-1.3-1.5-2.4-1.3c-0.8,0.1-1.6,0.6-1.5,1.5s0.7,0.9,3.6,1.2
			c0.8,0.1,3.4,0.2,3.8,2.7c0.3,2-1.1,3.8-4.1,4.3c-2.4,0.4-4.9-0.5-5.3-3.2L113.5,46.9z"/>
		<path class="st4" d="M125.8,37.2c3.4-0.5,5.8,1.7,6.3,5s-1.1,6.1-4.6,6.6s-5.8-1.7-6.3-4.9S122.3,37.7,125.8,37.2z M127.2,46.8
			c2.2-0.3,2.7-2.3,2.4-4.2s-1.4-3.7-3.6-3.3s-2.7,2.3-2.4,4.3S125,47.2,127.2,46.8z"/>
		<path class="st4" d="M22.9,68l1.8-0.3l1,6.5l3.8-0.6l0.2,1.5L24.1,76L22.9,68z"/>
		<path class="st4" d="M31.7,66.7l1.8-0.3l4.2,7.5l-1.8,0.3L35,72.5L32,73l-0.3,1.9l-1.8,0.3L31.7,66.7z M32.3,71.6l2.1-0.3
			l-1.4-2.8l0,0L32.3,71.6z"/>
		<path class="st4" d="M38.3,67.2l-2.4,0.4l-0.2-1.4l6.5-1l0.2,1.5L40,67l1,6.5l-1.8,0.3L38.3,67.2z"/>
		<path class="st4" d="M43.1,65l1.7-0.3l1.2,7.9l-1.7,0.3L43.1,65z"/>
		<path class="st4" d="M46.4,64.5l1.7-0.3l4.1,4.8l0,0l-0.8-5.3l1.6-0.2l1.2,7.9l-1.8,0.3l-4.1-4.8l0,0l0.8,5.3l-1.6,0.2L46.4,64.5z
			"/>
		<path class="st4" d="M58.2,62.5c2.4-0.4,4.2,1.2,4.5,3.6c0.5,2.1-0.8,4.2-3,4.7c-2.1,0.5-4.2-0.8-4.7-3c0-0.2-0.1-0.4-0.1-0.6
			C54.5,64.9,55.7,62.9,58.2,62.5z M59.2,69.4c1.6-0.2,2-1.7,1.8-3s-1-2.6-2.6-2.4c-1.6,0.2-1.9,1.7-1.7,3S57.6,69.6,59.2,69.4
			L59.2,69.4z"/>
		<path class="st4" d="M65.5,61.6l1.8-0.3l4.2,7.5l-1.8,0.3l-0.9-1.7l-3,0.4l-0.3,1.9L63.7,70L65.5,61.6z M66.1,66.5l2-0.3l-1.4-2.8
			l0,0L66.1,66.5z"/>
		<path class="st4" d="M70.9,60.8l2.5-0.4l2.7,5.2l0,0l0.9-5.7l2.4-0.4l1.2,7.9L79,67.7L78.1,62l0,0L77,68l-1.3,0.2l-2.8-5.3l0,0
			l0.8,5.6l-1.6,0.2L70.9,60.8z"/>
		<path class="st4" d="M81,59.2l5.9-0.9l0.2,1.5l-4.2,0.6l0.3,1.7l3.8-0.6l0.2,1.4l-3.8,0.6l0.3,1.9l4.3-0.6l0.2,1.5l-6,0.9L81,59.2
			z"/>
		<path class="st4" d="M88.2,58.2l4.3-0.7c1.2-0.3,2.4,0.5,2.6,1.7c0,0,0,0.1,0,0.1c0.2,0.9-0.2,1.8-1,2.2l0,0
			c0.9,0.1,1.3,0.9,1.4,1.7c0.1,0.6,0.3,1.3,0.6,1.8l-1.7,0.3c-0.3-0.6-0.4-1.2-0.6-1.9c-0.2-0.8-0.6-1.1-1.5-1l-1.8,0.3l0.5,3.1
			l-1.7,0.3L88.2,58.2z M90.5,61.5l1.9-0.3c0.8-0.1,1.1-0.5,1-1.3s-0.6-1-1.4-0.9l-1.9,0.3L90.5,61.5z"/>
		<path class="st4" d="M96.2,56.9l1.8-0.3l1.2,7.9l-1.7,0.3L96.2,56.9z"/>
		<path class="st4" d="M105.2,58.3c-0.3-0.8-1.1-1.3-1.9-1.1c-1.6,0.2-1.9,1.7-1.7,3s1,2.6,2.6,2.3c1-0.1,1.6-1,1.5-2l1.7-0.2
			c0.2,1.9-1.1,3.5-3,3.8c0,0,0,0,0,0c-2.1,0.4-4.1-1-4.5-3.1c0-0.1,0-0.3,0-0.4c-0.3-2.3,0.8-4.4,3.3-4.8c1.7-0.4,3.4,0.7,3.9,2.3
			L105.2,58.3z"/>
		<path class="st4" d="M109.9,54.9l1.8-0.3l4.2,7.5l-1.8,0.3l-0.9-1.7l-3,0.4l-0.4,1.9l-1.8,0.3L109.9,54.9z M110.5,59.8l2.1-0.3
			l-1.4-2.8l0,0L110.5,59.8z"/>
		<path class="st4" d="M115.3,54l1.7-0.3l4.1,4.8l0,0l-0.8-5.3L122,53l1.2,7.9l-1.7,0.3l-4.1-4.8l0,0l0.8,5.3l-1.7,0.2L115.3,54z"/>
		<path class="st4" d="M127.1,52.1c2.5-0.4,4.2,1.2,4.5,3.6c0.7,2.1-0.5,4.4-2.6,5s-4.4-0.5-5-2.6c-0.1-0.4-0.2-0.9-0.2-1.3
			C123.5,54.5,124.6,52.4,127.1,52.1z M128.1,58.9c1.6-0.2,2-1.7,1.8-3s-1-2.6-2.6-2.4s-2,1.7-1.8,3S126.6,59.2,128.1,58.9
			L128.1,58.9z"/>
		<path class="st4" d="M24.7,79.7l4.6-0.7c1.6-0.4,3.2,0.5,3.7,2.1c0.4,1.6-0.5,3.2-2.1,3.7c-0.2,0.1-0.5,0.1-0.7,0.1l-3.6,0.6
			l0.7,4.4l-1,0.2L24.7,79.7z M26.5,84.7l3.4-0.5c1.2-0.1,2.1-1.1,2-2.3c-0.1-1.2-1.1-2.1-2.3-2c-0.1,0-0.2,0-0.3,0l-3.4,0.5
			L26.5,84.7z"/>
		<path class="st4" d="M37.8,77.5c3.2-0.5,5.2,1.8,5.7,4.6s-0.8,5.6-4,6.1s-5.3-1.8-5.7-4.6S34.5,78,37.8,77.5z M39.3,87.5
			c2.7-0.4,3.5-2.9,3.2-5.1s-1.8-4.4-4.6-4s-3.5,2.9-3.2,5.1S36.5,87.9,39.3,87.5z"/>
		<path class="st4" d="M43.8,76.9l4.7-0.7c1.7-0.3,3.3,0.3,3.6,2.2c0.3,1.2-0.4,2.5-1.6,2.9l0,0c1.4,0,1.9,0.8,2.2,2.1
			c0.1,0.9,0.4,1.8,0.9,2.6l-1.1,0.2c-0.3-0.5-0.4-1-0.5-1.6c-0.3-1.4-0.7-3-2.5-2.7l-3.7,0.6l0.7,4.6l-1,0.2L43.8,76.9z M45.6,81.6
			l3.7-0.6c1.1-0.1,2-1.1,1.9-2.2c0,0,0-0.1,0-0.1c-0.1-1.1-1.1-1.9-2.2-1.8c-0.1,0-0.2,0-0.3,0.1l-3.7,0.6L45.6,81.6z"/>
		<path class="st4" d="M56.7,74.9l1-0.2l1,6.4c0.3,2.4,1.6,3.1,3.5,2.9s2.9-1.4,2.5-3.8l-1-6.4l1-0.2l1,6.6c0.3,2.1-0.5,4.1-3.4,4.5
			c-2,0.5-4-0.7-4.5-2.6c-0.1-0.2-0.1-0.5-0.1-0.7L56.7,74.9z"/>
		<path class="st4" d="M66.3,73.4l1.1-0.2l7.3,7.8l0,0l-1.3-8.7l1-0.2l1.6,10.3L75,82.7l-7.3-7.8l0,0l1.3,8.7l-1,0.2L66.3,73.4z"/>
		<path class="st4" d="M79.8,71.4l6.6-1l0.1,0.8l-5.6,0.8l0.6,3.7l4.9-0.8l0.1,0.8l-5,0.8l0.8,4.9l-1,0.2L79.8,71.4z"/>
		<path class="st4" d="M87.1,70.3l1-0.2l1,6.4c0.3,2.4,1.6,3.1,3.5,2.8s2.9-1.4,2.5-3.8l-1-6.4l1-0.1l1,6.6c0.3,2.1-0.6,4.1-3.4,4.5
			c-2,0.5-4-0.7-4.5-2.6c-0.1-0.2-0.1-0.5-0.1-0.7L87.1,70.3z"/>
		<path class="st4" d="M95.7,69l8.2-1.2l0.1,0.8l-3.6,0.5l1.4,9.5l-1,0.2l-1.4-9.5l-3.6,0.6L95.7,69z"/>
		<path class="st4" d="M104.4,67.7l1-0.2l1,6.4c0.4,2.4,1.6,3.1,3.5,2.8s2.9-1.4,2.5-3.8l-1-6.4l1-0.2l1,6.6
			c0.3,2.1-0.6,4.1-3.4,4.5c-2,0.5-4-0.7-4.5-2.6c-0.1-0.2-0.1-0.5-0.1-0.7L104.4,67.7z"/>
		<path class="st4" d="M114,66.2l4.7-0.7c1.7-0.3,3.3,0.3,3.6,2.2c0.3,1.2-0.4,2.5-1.6,2.9l0,0c1.4,0,1.9,0.8,2.2,2
			c0.1,0.7,0.4,2.1,0.9,2.6l-1.1,0.2c-0.3-0.5-0.4-1-0.5-1.6c-0.3-1.4-0.7-3-2.5-2.7l-3.7,0.6l0.7,4.6l-1,0.1L114,66.2z M115.7,71
			l3.7-0.6c1.1-0.1,2-1.1,1.9-2.2c0-0.1,0-0.1,0-0.2c-0.1-1.1-1.1-1.9-2.2-1.8c-0.1,0-0.2,0-0.3,0.1l-3.7,0.6L115.7,71z"/>
		<path class="st4" d="M127.6,63.9c3.2-0.5,5.2,1.8,5.7,4.6s-0.8,5.6-4,6.1s-5.3-1.8-5.7-4.6S124.3,64.4,127.6,63.9z M129.1,73.8
			c2.7-0.4,3.5-2.9,3.2-5.1s-1.8-4.4-4.6-4s-3.5,2.9-3.2,5.1S126.4,74.3,129.1,73.8L129.1,73.8z"/>
	</g>
</g>
</svg>
