<svg id="Layer_1" data-name="Layer 1" xmlns="http://www.w3.org/2000/svg" viewBox="0 0 65.65 75.27"><defs><style>.cls-1{fill:#fff;}.cls-2{isolation:isolate;}.cls-3{fill:#95347b;}</style></defs><title>ico-pdf</title><g id="Capa_2" data-name="Capa 2"><g id="Capa_1-2" data-name="Capa 1-2"><polygon class="cls-1" points="65.65 57.97 32.03 75.27 0 57.97 0 23.39 12.81 18.9 16.33 21.46 5.12 24.99 32.83 36.2 60.21 25.31 51.24 20.82 54.12 18.9 65.65 23.7 65.65 57.97"/><polygon class="cls-1" points="44.6 9.62 35.7 19.647 35.7 0 29.94 0 29.94 19.627 21.05 9.62 16.74 13.44 32.83 31.57 48.91 13.44 44.6 9.62"/><g class="cls-2"><path class="cls-3" d="M16.9,56.98V43.9h5.205a5.257,5.257,0,0,1,3.479,1.067A3.981,3.981,0,0,1,26.859,48.2q0,4.441-4.632,4.442H20.3V56.98Zm3.4-10.341V49.9h.573q.485,0,.737-.007a3.686,3.686,0,0,0,.642-.1,1.407,1.407,0,0,0,.581-.242,1.355,1.355,0,0,0,.338-.469,1.82,1.82,0,0,0,.148-.781,2.05,2.05,0,0,0-.139-.807A1.428,1.428,0,0,0,22.852,47a1.213,1.213,0,0,0-.564-.252,4.622,4.622,0,0,0-.642-.1q-.27-.016-.772-.017Z"/><path class="cls-3" d="M28.369,56.98V43.9h4.823a6.481,6.481,0,0,1,4.693,1.9,6.492,6.492,0,0,1,0,9.281,6.48,6.48,0,0,1-4.693,1.9Zm3.4-10.2V54.1h.763a3.983,3.983,0,0,0,2.7-.92A3.42,3.42,0,0,0,36.3,50.439a3.527,3.527,0,0,0-1.025-2.689,3.767,3.767,0,0,0-2.706-.973Z"/><path class="cls-3" d="M48.929,46.777H44.816v2.188h3.731v2.879H44.816V56.98h-3.4V43.9h7.513Z"/></g></g></g></svg>