<svg xmlns="http://www.w3.org/2000/svg" viewBox="0 0 64.99 64.99"><defs><style>.cls-1{fill:#e84e26;}.cls-2{fill:#fff;}.cls-3{fill:none;stroke:#404041;stroke-miterlimit:10;stroke-width:0.5px;}</style></defs><title>Recurso 56</title><g id="Capa_2" data-name="Capa 2"><g id="Capa_1-2" data-name="Capa 1"><rect class="cls-1" width="64.99" height="64.99" rx="20.51" ry="20.51"/><path class="cls-2" d="M14.49,60.56c0,.23,0,.37-.1.45a.33.33,0,0,1-.23.1.39.39,0,0,1-.24-.1c-.09-.08-.08-.22-.08-.45V58.31h-.6c-.19,0-.31,0-.37-.06a.26.26,0,0,1-.09-.19.29.29,0,0,1,.08-.19c.07-.07.19-.06.38-.06h1.84c.19,0,.31,0,.38.06a.28.28,0,0,1,.08.19.27.27,0,0,1-.08.19c-.07.07-.19.06-.38.06h-.59Z"/><path class="cls-2" d="M15.71,59.06c0-.11,0-.41.3-.41s.29.26.29.38a.58.58,0,0,1,.53-.38c.12,0,.54.08.54.34a.25.25,0,0,1-.23.26c-.11,0-.23-.08-.39-.08-.39,0-.43.5-.43,1.07v.35a.89.89,0,0,1,0,.37.32.32,0,0,1-.26.15.29.29,0,0,1-.26-.15.64.64,0,0,1,0-.35Z"/><path class="cls-2" d="M18.31,60.61c0,.21,0,.33-.08.4a.3.3,0,0,1-.22.1.32.32,0,0,1-.22-.1c-.08-.07-.08-.19-.08-.4V59.15c0-.22,0-.33.08-.41a.32.32,0,0,1,.22-.09.3.3,0,0,1,.26.15.86.86,0,0,1,0,.34ZM18,58.37a.29.29,0,0,1-.29-.3.29.29,0,0,1,.58,0,.29.29,0,0,1-.29.3"/><path class="cls-2" d="M18.92,59.15c0-.2,0-.34.08-.41a.34.34,0,0,1,.22-.09.33.33,0,0,1,.22.09c.08.07.08.22.08.42V60a.94.94,0,0,0,.07.45.38.38,0,0,0,.34.19.5.5,0,0,0,.45-.26c0-.07.08-.16.08-.62v-.6c0-.2,0-.34.09-.41a.34.34,0,0,1,.22-.09.31.31,0,0,1,.22.09c.08.07.08.21.08.41v1.49A.83.83,0,0,1,21,61a.26.26,0,0,1-.24.15c-.25,0-.29-.22-.28-.42a1,1,0,0,1-.8.42.75.75,0,0,1-.68-.35,1.06,1.06,0,0,1-.11-.55Z"/><path class="cls-2" d="M23.81,60.61c0,.2,0,.33-.08.41a.34.34,0,0,1-.22.09.36.36,0,0,1-.22-.09c-.08-.08-.08-.21-.08-.41v-.87c0-.21,0-.62-.41-.62a.52.52,0,0,0-.45.26,1.08,1.08,0,0,0-.09.6v.63c0,.2,0,.33-.09.41a.32.32,0,0,1-.21.09.36.36,0,0,1-.22-.09c-.09-.08-.09-.21-.09-.41V59.12c0-.19,0-.32.09-.39a.28.28,0,0,1,.2-.08.28.28,0,0,1,.24.13.55.55,0,0,1,0,.28,1,1,0,0,1,.78-.41.78.78,0,0,1,.68.34,1.19,1.19,0,0,1,.13.63Z"/><path class="cls-2" d="M24.51,58.53c0-.4.07-.78.74-.78.46,0,.58.1.58.26a.2.2,0,0,1-.2.2l-.23,0c-.29,0-.29.2-.29.37v.14h.16c.11,0,.34,0,.34.22s-.2.22-.34.22h-.16v1.47c0,.11,0,.5-.3.5s-.3-.25-.3-.5V59.14h-.17c-.05,0-.28,0-.28-.22a.19.19,0,0,1,.08-.16.32.32,0,0,1,.23-.06h.14Z"/><path class="cls-2" d="M26.55,61.11a.71.71,0,0,1-.81-.69.7.7,0,0,1,.59-.65c.34-.09.59-.12,1-.24,0-.22,0-.47-.43-.47-.07,0-.42,0-.54.23s-.13.24-.28.24a.23.23,0,0,1-.25-.22.66.66,0,0,1,.34-.51,1.29,1.29,0,0,1,.71-.15c.92,0,1.07.38,1.06,1l0,.56a1.17,1.17,0,0,0,.07.46.52.52,0,0,1,0,.23.27.27,0,0,1-.28.24c-.16,0-.28-.17-.38-.34a1.36,1.36,0,0,1-.85.34M27,60c-.48.1-.65.18-.65.39s.09.33.4.33a.61.61,0,0,0,.58-.37,1.4,1.4,0,0,0,0-.45A2.63,2.63,0,0,1,27,60"/><path class="cls-2" d="M32,60.59c0,.23,0,.34-.08.43a.34.34,0,0,1-.22.09.28.28,0,0,1-.22-.1c-.08-.08-.08-.21-.08-.42v-.88c0-.3,0-.59-.35-.59a.44.44,0,0,0-.41.26,1.36,1.36,0,0,0-.07.54v.67c0,.23,0,.34-.08.43a.31.31,0,0,1-.22.09c-.3,0-.3-.28-.3-.52v-.83c0-.36,0-.64-.33-.64-.5,0-.5.46-.5.79v.68c0,.23,0,.34-.08.42a.27.27,0,0,1-.21.1.3.3,0,0,1-.23-.1c-.08-.08-.08-.21-.08-.42V59.13c0-.21,0-.32.08-.39a.29.29,0,0,1,.2-.09.28.28,0,0,1,.25.14.49.49,0,0,1,0,.23.91.91,0,0,1,.73-.37.7.7,0,0,1,.67.37.89.89,0,0,1,.72-.37.78.78,0,0,1,.6.24.92.92,0,0,1,.17.66Z"/><path class="cls-2" d="M33.65,61.11a1.23,1.23,0,1,1,1.19-1.23,1.15,1.15,0,0,1-1.19,1.23m0-2c-.36,0-.6.28-.6.78s.24.78.6.78.59-.28.59-.78-.24-.78-.59-.78"/><path class="cls-2" d="M36.21,61.11c-.84,0-1-.49-1-.65a.24.24,0,0,1,.24-.24.27.27,0,0,1,.25.18.59.59,0,0,0,.57.32c.25,0,.41-.12.41-.29s-.26-.29-.51-.35-.93-.23-.93-.73c0-.19.13-.7,1-.7.67,0,1,.35,1,.55a.23.23,0,0,1-.25.24c-.09,0-.16,0-.33-.21a.47.47,0,0,0-.41-.19c-.12,0-.38,0-.38.24s.15.23.67.35c.31.08.82.24.82.69s-.48.79-1.06.79"/><path class="cls-2" d="M39.14,59.15c0-.2,0-.28,0-.37a.32.32,0,0,1,.25-.13.28.28,0,0,1,.25.13.73.73,0,0,1,0,.37V61c0,.35.05,1-.69,1,0,0-.43,0-.53-.17a.35.35,0,0,1,0-.13.23.23,0,0,1,.23-.24h.22c.13,0,.21,0,.21-.44Zm.29-.78a.29.29,0,0,1-.29-.3.29.29,0,0,1,.58,0,.29.29,0,0,1-.29.3"/><path class="cls-2" d="M40.34,59.15c0-.2,0-.34.08-.41a.34.34,0,0,1,.22-.09.33.33,0,0,1,.22.09c.08.07.08.22.08.42V60a.94.94,0,0,0,.07.45.38.38,0,0,0,.34.19.5.5,0,0,0,.45-.26c0-.07.09-.16.09-.62v-.6c0-.2,0-.34.08-.41a.34.34,0,0,1,.22-.09.31.31,0,0,1,.22.09c.08.07.08.21.08.41v1.49a.83.83,0,0,1,0,.32.26.26,0,0,1-.24.15c-.25,0-.29-.22-.28-.42a1,1,0,0,1-.8.42.75.75,0,0,1-.68-.35,1.06,1.06,0,0,1-.11-.55Z"/><path class="cls-2" d="M45.23,60.61c0,.2,0,.33-.08.41a.34.34,0,0,1-.22.09.36.36,0,0,1-.22-.09c-.08-.08-.08-.21-.08-.41v-.87c0-.21,0-.62-.41-.62a.52.52,0,0,0-.45.26,1.08,1.08,0,0,0-.09.6v.63c0,.2,0,.33-.09.41a.32.32,0,0,1-.21.09.36.36,0,0,1-.22-.09c-.09-.08-.09-.21-.09-.41V59.12c0-.19,0-.32.09-.39a.28.28,0,0,1,.2-.08.28.28,0,0,1,.24.13.55.55,0,0,1,0,.28,1,1,0,0,1,.78-.41.78.78,0,0,1,.68.34,1.19,1.19,0,0,1,.13.63Z"/><path class="cls-2" d="M45.94,58.34A.87.87,0,0,1,46,58a.33.33,0,0,1,.26-.14.29.29,0,0,1,.25.14.58.58,0,0,1,0,.32v.41h.12a.49.49,0,0,1,.27,0,.21.21,0,0,1,.1.18c0,.22-.25.22-.38.22h-.11v1.12c0,.22,0,.39.2.39s.19,0,.28,0a.19.19,0,0,1,.2.2c0,.29-.5.3-.62.3-.66,0-.66-.42-.66-.81V59.14h-.08c-.27,0-.27-.19-.27-.22,0-.22.23-.22.28-.22h.07Z"/><path class="cls-2" d="M48.51,61.11a1.23,1.23,0,1,1,1.2-1.23,1.15,1.15,0,0,1-1.2,1.23m0-2c-.35,0-.59.28-.59.78s.24.78.59.78.59-.28.59-.78-.24-.78-.59-.78"/><path class="cls-2" d="M51.08,61.11c-.85,0-1-.49-1-.65a.25.25,0,0,1,.25-.24c.14,0,.19.09.25.18a.59.59,0,0,0,.57.32c.24,0,.41-.12.41-.29s-.26-.29-.52-.35-.93-.23-.93-.73c0-.19.13-.7,1-.7.67,0,1,.35,1,.55a.23.23,0,0,1-.25.24c-.08,0-.16,0-.32-.21A.48.48,0,0,0,51,59c-.11,0-.38,0-.38.24s.16.23.67.35c.32.08.82.24.82.69s-.47.79-1.05.79"/><path class="cls-2" d="M28.53,41.44a1.93,1.93,0,0,1-.63-.1,2.34,2.34,0,0,1-1.41-1.77.55.55,0,0,1-.59-.34l-.07-.14c-.59-1.37-1.2-2.79-.63-3.9A4.19,4.19,0,0,1,28,33.38a3.15,3.15,0,0,1,.61-.06,4.47,4.47,0,0,1,3.74,2.87.58.58,0,0,1,0,.43.57.57,0,0,1-.32.29l-.05,0a5.34,5.34,0,0,1-.31,1.6c-.6,1.72-1.89,2.91-3.14,2.91m1-6.5c-1,0-1.69.73-1.94,2.17s-.12,2.89.67,3.17a1.17,1.17,0,0,0,.26,0c.76,0,1.65-.93,2.08-2.16a3.91,3.91,0,0,0,.18-2.11,1.26,1.26,0,0,0-.7-1,1.76,1.76,0,0,0-.42-.12h-.13"/><path class="cls-2" d="M40.82,54.07a3.09,3.09,0,0,0-3.66-.36,7.65,7.65,0,0,1-2.3.32,17.28,17.28,0,0,1-6.31-1.41l-.27.07-.12.07a6.28,6.28,0,0,1-2.4.49,3.59,3.59,0,0,1-3.37-1.89c-.21-.4-.5-.88-.81-1.39-1.24-2-2.78-4.51-2.06-6.58a4,4,0,0,1,2.64-2.33l.05,0a4,4,0,0,1,1-.12A10.68,10.68,0,0,1,28,42.25a5.9,5.9,0,0,0,2.67.76,4.16,4.16,0,0,0,.77-.07,2.81,2.81,0,0,1,.4-.08l.41-.11.43-.11a3.65,3.65,0,0,1-.63-2.08,4,4,0,0,1,.13-1,.63.63,0,0,1,0-.36,3.89,3.89,0,0,1,2.28-2.1,3.63,3.63,0,0,1,3.11.86l0,0a2.19,2.19,0,0,1,.65,1.63c0,.87-.79,1.81-2.2,2.73-.09.06-.19.14-.18.23s.34.32.48.36l.36.1h0a4.94,4.94,0,0,1,2.74,1.31,5,5,0,0,1,1.12,3.34A4.78,4.78,0,0,1,42,47.19h0l.09,0A.89.89,0,0,0,42,47a2.48,2.48,0,0,1-1-1.42v0a.42.42,0,0,1-.4-.2,2.45,2.45,0,0,1-.24-1.8,2.74,2.74,0,0,1,1.51-1.65c.91-.47,1.57-.54,2.05-.23s.72,1.24.68,2.48l.1.26a2.84,2.84,0,0,1,0,1.73,1.93,1.93,0,0,1-.35.63.26.26,0,0,0-.07.19s0,0,.08,0a3.39,3.39,0,0,1,2.57,1c.73.87.79,2.24.21,4.43a2.82,2.82,0,0,1-2.24,2.36c-1.77.24-2.72.45-4.06-.73m2.92-6.35-.46,0a3.61,3.61,0,0,0-2.78,1.64A1.79,1.79,0,0,0,41,51.79l0,0c1,1,1.86,1.54,2.77,1.54a1.72,1.72,0,0,0,.39,0A2.31,2.31,0,0,0,46.1,51.6c.51-1.82.52-2.37,0-3a3,3,0,0,0-2.4-.93M35,52.87c.74,0,3.09-.09,3.93-2.33a5.25,5.25,0,0,0-.9-5.2c-1-1.24-2.54-1.69-5-1.5a8.58,8.58,0,0,0-.92.11l-.42.09a3.11,3.11,0,0,0-2.14,1.44c-.93,1.82.76,4.62.78,4.65a.58.58,0,0,1-.19.78.81.81,0,0,1-.39.08c-.22,0-.68-.06-.81-.28a5.29,5.29,0,0,1,1-6.78,13.85,13.85,0,0,1-2.4-.68c-4.46-1.86-5.64.17-5.87.75-.62,1.56.1,4,.92,5.38.33.52.63,1,.86,1.46a2.39,2.39,0,0,0,2.93,1.42l.07,0a3.54,3.54,0,0,0,.69-.3,8.57,8.57,0,0,1-1.25-.8.55.55,0,0,1-.2-.39.56.56,0,0,1,.13-.41.57.57,0,0,1,.43-.19.54.54,0,0,1,.36.12,9.49,9.49,0,0,0,2.11,1.18c4,1.8,6.31,1.43,6.31,1.43m7.64-9.61a.76.76,0,0,0-.22,0,.73.73,0,0,0-.41.48,3.06,3.06,0,0,0,0,1.44c.25.76,1,1.56,1.44,1.43a1,1,0,0,0,.49-.48,2,2,0,0,0,0-1.63c-.36-1.11-1-1.27-1.31-1.27m-8-5.08A1.67,1.67,0,0,0,33.08,40c0,1.18.79,2.53,1.49,2.53s1.27-1.07,1.39-2.12a2.27,2.27,0,0,0-.42-1.82,1.26,1.26,0,0,0-.93-.42"/><path class="cls-2" d="M16.82,15.49a3.37,3.37,0,0,1-3.25-2.91.93.93,0,0,1,1-.89c.9,0,1,1.05,1.21,1.58.24.79.89.24.89-.22s0-1,0-1c0-2-.32-4-.32-6.05a1,1,0,0,1,1-1,.9.9,0,0,1,1,.88c0,2.46.27,4.59.27,7.05,0,1,0,2.58-1.78,2.58"/><path class="cls-2" d="M9,27.11c-2.12,0-2.18-4.18-2.18-5.65,0-1.28.24-4.77,2-4.77A2.36,2.36,0,0,1,11,19.1a.88.88,0,0,1-.88.82c-.92,0-.71-.93-1.12-1.46a15.27,15.27,0,0,0-.49,3,9.37,9.37,0,0,0,.57,3.89c.67-.47.06-1.66,1.22-1.66a.85.85,0,0,1,.87.9A2.45,2.45,0,0,1,9,27.11"/><path class="cls-2" d="M37,26.94c-.82,0-.91-1.45-.92-2.47,0-.51,0-1,0-1h-.82c0,.58.11,1.14.11,1.72s-.1,1.73-1,1.73c-.45,0-.65-.37-.65-.83l0-4.91c0-1.41,0-3,1.85-3,2.36,0,1.84,2.58,2,4.11.08,1.22.18,2.61.18,3.84,0,.46-.23.83-.69.83m-1.9-6.5.06,1.93H36a13.94,13.94,0,0,0-.11-1.83c-.15-1.06-.9-.7-.83-.1"/><path class="cls-2" d="M44.75,26.91c-.89,0-.61-2-.61-2.69V23.14c0-.7,0-1.2-.07-1.9-.23.4-.62,1.63-1.17,1.63s-.93-1.17-1.16-1.6v4.87a.69.69,0,0,1-.66.77.9.9,0,0,1-.9-.77V19.49c0-.51.75-1,1.23-1,.71,0,1.14,1.52,1.45,2,.19-.47.44-2.11,1.57-2a.81.81,0,0,1,.78.77,9,9,0,0,0,.15,1.13,23.41,23.41,0,0,1,.23,3.74v1.07c0,.55-.06,1.7-.85,1.7"/><path class="cls-2" d="M16.22,27c-2.56,0-3.07-2.36-3.07-4.44,0-1.64.31-3.21,2.3-3.21,2.3,0,2.92,2.23,2.92,4.14,0,1.35-.42,3.51-2.15,3.51m.38-4c0-.72-.13-2-1-2.11s-.69,2-.69,2a4,4,0,0,0,.74,2.5c.43.42.7-.15.77-.34a7.53,7.53,0,0,0,.2-2"/><path class="cls-2" d="M25.22,14a8.5,8.5,0,0,1,0,1c0,.37-.41.63-.85.63a.85.85,0,0,1-.77-.38,2.38,2.38,0,0,1-.79.13c-2,0-1.74-2.45-1.74-3.53,0-1.42-.17-1.94-.17-3.36a.77.77,0,0,1,.85-.67c1.59,0,1,4,1,4.94a4,4,0,0,0,.07,1c0,.12,0,.27.34.16s.36-.54.43-.93a18.61,18.61,0,0,0-.07-3.63c0-.53,0-1.07.85-1.07,1,0,1,1.21,1,1.76a15.53,15.53,0,0,1-.2,2.71,4.16,4.16,0,0,0,0,1.27"/><path class="cls-2" d="M49.07,15.72c-.91,0-2.67-.58-2.67-1.62a1,1,0,0,1,1-.94,1.53,1.53,0,0,1,1,.46,1.67,1.67,0,0,0,.72.42.58.58,0,0,0,.42-.25c.06-.13,0-.3-.16-.5s-.3-.31-.48-.49a3.47,3.47,0,0,1-1.42-2.48c0-1.34.58-2,1.82-2a1.67,1.67,0,0,1,1.84,1.84c0,.52-.22.82-.61.82s-.55-.29-.78-.55l-.17-.17c-.12-.12-.2-.15-.24-.15s-.18.22-.19.3c0,.39.38.78.84,1.24A3.42,3.42,0,0,1,51.31,14c0,1.13-.75,1.7-2.24,1.7"/><path class="cls-2" d="M56.21,27c-.87,0-2.57-.55-2.57-1.56a.91.91,0,0,1,1-.9,1.48,1.48,0,0,1,.92.44,1.76,1.76,0,0,0,.69.41.56.56,0,0,0,.41-.25c0-.12,0-.29-.16-.48s-.29-.3-.46-.46a3.34,3.34,0,0,1-1.36-2.39c0-1.29.55-1.89,1.74-1.89a1.62,1.62,0,0,1,1.78,1.77c0,.5-.22.79-.59.79s-.53-.28-.75-.53l-.16-.17c-.12-.11-.28-.32-.43-.26s-.17.21-.18.29c0,.37.55.87,1,1.31a3.29,3.29,0,0,1,1.3,2.25c0,1.08-.73,1.63-2.16,1.63"/><path class="cls-2" d="M14.28,30c-.8.07-1.31.44-1.14.81s1,.61,1.76.53a173.28,173.28,0,0,1,35.15-.56c.8.08,1.53-.25,1.59-.63s-.55-.71-1.37-.74c-21.88-.77-35.42.53-36,.59"/><path class="cls-2" d="M24,26.88c-1.1,0-1.5-3.84-1.83-4.67,0,1.19.07,2.65.07,3.84a.77.77,0,0,1-1.53,0c0-2.47-.08-4.95-.08-7.42,0-.58.47-.73,1-.73s.95.15.95.73a14.06,14.06,0,0,0,.83,3.09c-.07-.59-.15-1.55-.15-2s0-2.09.85-2.09c1.19,0,.74,2.7.74,3.41,0,1.67.19,3.33.19,5,0,.45-.59.88-1,.88"/><path class="cls-2" d="M31,15.65c-1.11,0-1.51-3.84-1.83-4.67,0,1.19.07,2.65.07,3.84a.76.76,0,0,1-.77.73.75.75,0,0,1-.76-.73c0-2.47-.08-5-.08-7.43,0-.57.46-.72.95-.72s1,.15,1,.72a14.19,14.19,0,0,0,.83,3.1,19.22,19.22,0,0,1-.15-2.05c0-.57,0-2.08.85-2.08,1.18,0,.73,2.7.73,3.41,0,1.66.19,3.33.19,5a1.08,1.08,0,0,1-1,.89"/><path class="cls-2" d="M30.06,20.74c.08,1,.1,2.34.08,3.42,0,.09,0,.47-.09,1.84a.8.8,0,0,1-.84.75A.79.79,0,0,1,28.4,26c.08-1.46.09-1.84.1-2,0-1.05,0-2.28-.11-3.28h-.9c-.43-.05-.82-.25-.81-.76a.81.81,0,0,1,.85-.76l3.51.06a.81.81,0,0,1,.81.79c0,.62-.55.73-1.06.73h-.73"/><path class="cls-2" d="M50.4,26.73c-2.38,0-2.86-2.21-2.86-4.16,0-1.53.29-3,2.15-3,2.14,0,2.65,2.08,2.65,3.87,0,1.26-.32,3.29-1.94,3.29M50.71,23c0-.6-.19-1.66-.88-1.94s-.59,1.81-.59,1.81A3.31,3.31,0,0,0,49.87,25c.35.35.67-.11.71-.28a4.86,4.86,0,0,0,.13-1.14Z"/><path class="cls-2" d="M37.27,9c.09,1.06.1,2.38.08,3.48,0,.09,0,1-.08,2.37a.84.84,0,0,1-.86.77.81.81,0,0,1-.83-.8c.09-1.5.1-2.38.1-2.53A33.18,33.18,0,0,0,35.57,9h-.91c-.44-.06-.84-.25-.83-.78a.83.83,0,0,1,.87-.77l3.57.06a.81.81,0,0,1,.82.8c0,.64-.55.75-1.07.75h-.75"/><path class="cls-2" d="M42.9,15.52c-2.35,0-2.82-2.18-2.82-4.1,0-1.51.28-3,2.12-3,2.11,0,2.68,2.06,2.68,3.82,0,1.24-.38,3.24-2,3.24m.35-3.65c0-.66-.11-1.83-.93-1.94s-.64,1.8-.64,1.8a3.66,3.66,0,0,0,.68,2.3c.39.39.65-.13.71-.31a7,7,0,0,0,.18-1.85"/><path class="cls-3" d="M17,38.13h0Z"/><path class="cls-2" d="M20.77,62c-.3,0-.49.18-.42.33s.35.25.64.21a57.28,57.28,0,0,1,12.82-.22c.3,0,.56-.11.59-.26s-.21-.29-.51-.3A97.69,97.69,0,0,0,20.77,62"/><path class="cls-2" d="M57.59,52.34c0,.1,0,.17-.05.21a.15.15,0,0,1-.1,0,.17.17,0,0,1-.12,0s0-.11,0-.21V51.29H57c-.08,0-.14,0-.17,0a.13.13,0,0,1,0-.09.12.12,0,0,1,0-.09s.09,0,.17,0h.87c.08,0,.14,0,.17,0a.13.13,0,0,1,0,.09.18.18,0,0,1,0,.09s-.09,0-.17,0h-.28Z"/><path class="cls-2" d="M58.53,52.36c0,.1,0,.15,0,.19a.13.13,0,0,1-.1,0,.12.12,0,0,1-.1,0s0-.09,0-.19v-1.1c0-.18.07-.21.19-.21h.09c.18,0,.19,0,.23.2l.22.83.22-.83c0-.17.06-.2.23-.2h.09a.19.19,0,0,1,.15,0,.24.24,0,0,1,0,.17v1.1c0,.1,0,.15,0,.19a.16.16,0,0,1-.11,0,.12.12,0,0,1-.1,0s0-.09,0-.19v-1l-.24,1c0,.12,0,.18-.09.21a.16.16,0,0,1-.12,0,.17.17,0,0,1-.12,0,.41.41,0,0,1-.09-.21l-.24-1Z"/></g></g></svg>