<svg xmlns="http://www.w3.org/2000/svg" viewBox="0 0 413.898 413.898" style=""><defs><style>.cls-1,.cls-2,.cls-3,.cls-4,.cls-5,.cls-6,.cls-7,.cls-8{fill:none;stroke-miterlimit:10;}.cls-1,.cls-3,.cls-4,.cls-5{stroke:#2e88c8;}.cls-1,.cls-2,.cls-3,.cls-4{stroke-linecap:round;}.cls-1{stroke-width:2px;}.cls-1,.cls-2{opacity:0.75;}.cls-2{stroke:#1db3b4;stroke-width:8px;}.cls-3{stroke-width:10px;}.cls-4{stroke-width:5px;opacity:0.5;}.cls-5{stroke-width:3px;}.cls-6{stroke:#454545;stroke-dasharray:25;}.cls-6,.cls-8{stroke-width:2.898px;}.cls-7,.cls-8{stroke:#b95ea4;opacity:0.2;isolation:isolate;}.cls-7{stroke-width:1.932px;}</style></defs><title>FinalVec</title><g id="Layer_6" data-name="Layer 6"><path class="cls-1 TuqYbEjd_0" d="M78.449,185.449A22,22 0,1,1 122.449,185.449A22,22 0,1,1 78.449,185.449"></path><path class="cls-2 TuqYbEjd_1" d="M66.449,289.949A58.5,58.5 0,1,1 183.449,289.949A58.5,58.5 0,1,1 66.449,289.949"></path><path class="cls-3 TuqYbEjd_2" d="M299.449,304.449A22,22 0,1,1 343.449,304.449A22,22 0,1,1 299.449,304.449"></path><path class="cls-4 TuqYbEjd_3" d="M299.949,135.949A17,17 0,1,1 333.949,135.949A17,17 0,1,1 299.949,135.949"></path></g><g id="Layer_14" data-name="Layer 14"><path class="cls-5 TuqYbEjd_4" d="M208.705,80.193a1.505,1.505,0,0,1-1.886,1.312c-3.287-.87-10.587-2.994-15.048-5.745-5.663-3.493-11.306-13.665-1.56-20.449s17.024,2.251,18.332,8.774C209.574,69.224,209.03,76.807,208.705,80.193Z" transform="translate(-14.551 -14.551)"></path></g><g id="Layer_13" data-name="Layer 13"><path class="cls-5 TuqYbEjd_5" d="M214.668,93.993a1.506,1.506,0,0,1-1.646-1.641,34.466,34.466,0,0,1,1.634-8.261c1.388-3.538,6.535-7.744,11.339-2.953s.464,9.8-3.071,11.2A34.456,34.456,0,0,1,214.668,93.993Z" transform="translate(-14.551 -14.551)"></path></g><g id="Layer_12" data-name="Layer 12"><path class="cls-5 TuqYbEjd_6" d="M214.118,51.415a1.511,1.511,0,0,1-2.13,1.013,23.776,23.776,0,0,1-4.846-2.948c-2.106-1.835-3.746-6.435.756-8.576s6.9,2.1,6.99,4.89A23.8,23.8,0,0,1,214.118,51.415Z" transform="translate(-14.551 -14.551)"></path></g><g id="Layer_11" data-name="Layer 11"><path class="cls-5 TuqYbEjd_7" d="M222.07,69.972a1.5,1.5,0,0,1-1.875-1.34c-.213-2.738-.478-8.089.306-11.766,1.052-4.931,6.876-11.547,14.2-6.317s2.726,12.723-1.6,15.317C229.877,67.8,224.73,69.286,222.07,69.972Z" transform="translate(-14.551 -14.551)"></path></g><g id="Layer_10" data-name="Layer 10"><g id="Dotted_line" data-name="Dotted line"><path class="cls-6 TuqYbEjd_8" d="M1.4490000000000123,206.949A205.5,205.5 0,1,1 412.449,206.949A205.5,205.5 0,1,1 1.4490000000000123,206.949"></path></g></g><g id="Layer_9" data-name="Layer 9"><g id="Circle3"><path class="cls-7 TuqYbEjd_9" d="M105.723,88.086A10.363,10.363 0,1,1 126.449,88.086A10.363,10.363 0,1,1 105.723,88.086"></path></g></g><g id="Layer_8" data-name="Layer 8"><g id="Circle1"><path class="cls-8 TuqYbEjd_10" d="M329.683,219.628A17.036,17.036 0,1,1 363.755,219.628A17.036,17.036 0,1,1 329.683,219.628"></path></g></g><g id="Layer_7" data-name="Layer 7"><g id="Circle2"><path class="cls-7 TuqYbEjd_11" d="M33.239999999999995,209.92A11.377,11.377 0,1,1 55.994,209.92A11.377,11.377 0,1,1 33.239999999999995,209.92"></path></g></g><style data-made-with="vivus-instant">.TuqYbEjd_0{stroke-dasharray:139 141;stroke-dashoffset:140;animation:TuqYbEjd_draw_0 5950ms ease-out 0ms infinite,TuqYbEjd_fade 5950ms linear 0ms infinite;}.TuqYbEjd_1{stroke-dasharray:368 370;stroke-dashoffset:369;animation:TuqYbEjd_draw_1 5950ms ease-out 0ms infinite,TuqYbEjd_fade 5950ms linear 0ms infinite;}.TuqYbEjd_2{stroke-dasharray:139 141;stroke-dashoffset:140;animation:TuqYbEjd_draw_2 5950ms ease-out 0ms infinite,TuqYbEjd_fade 5950ms linear 0ms infinite;}.TuqYbEjd_3{stroke-dasharray:107 109;stroke-dashoffset:108;animation:TuqYbEjd_draw_3 5950ms ease-out 0ms infinite,TuqYbEjd_fade 5950ms linear 0ms infinite;}.TuqYbEjd_4{stroke-dasharray:85 87;stroke-dashoffset:86;animation:TuqYbEjd_draw_4 5950ms ease-out 0ms infinite,TuqYbEjd_fade 5950ms linear 0ms infinite;}.TuqYbEjd_5{stroke-dasharray:48 50;stroke-dashoffset:49;animation:TuqYbEjd_draw_5 5950ms ease-out 0ms infinite,TuqYbEjd_fade 5950ms linear 0ms infinite;}.TuqYbEjd_6{stroke-dasharray:35 37;stroke-dashoffset:36;animation:TuqYbEjd_draw_6 5950ms ease-out 0ms infinite,TuqYbEjd_fade 5950ms linear 0ms infinite;}.TuqYbEjd_7{stroke-dasharray:64 66;stroke-dashoffset:65;animation:TuqYbEjd_draw_7 5950ms ease-out 0ms infinite,TuqYbEjd_fade 5950ms linear 0ms infinite;}.TuqYbEjd_8{stroke-dasharray:1292 1294;stroke-dashoffset:1293;animation:TuqYbEjd_draw_8 5950ms ease-out 0ms infinite,TuqYbEjd_fade 5950ms linear 0ms infinite;}.TuqYbEjd_9{stroke-dasharray:66 68;stroke-dashoffset:67;animation:TuqYbEjd_draw_9 5950ms ease-out 0ms infinite,TuqYbEjd_fade 5950ms linear 0ms infinite;}.TuqYbEjd_10{stroke-dasharray:108 110;stroke-dashoffset:109;animation:TuqYbEjd_draw_10 5950ms ease-out 0ms infinite,TuqYbEjd_fade 5950ms linear 0ms infinite;}.TuqYbEjd_11{stroke-dasharray:72 74;stroke-dashoffset:73;animation:TuqYbEjd_draw_11 5950ms ease-out 0ms infinite,TuqYbEjd_fade 5950ms linear 0ms infinite;}@keyframes TuqYbEjd_draw{100%{stroke-dashoffset:0;}}@keyframes TuqYbEjd_fade{0%{stroke-opacity:1;}95.7983193277311%{stroke-opacity:1;}100%{stroke-opacity:0;}}@keyframes TuqYbEjd_draw_0{3.361344537815126%{stroke-dashoffset: 140}40.33613445378151%{ stroke-dashoffset: 0;}100%{ stroke-dashoffset: 0;}}@keyframes TuqYbEjd_draw_1{4.583651642475172%{stroke-dashoffset: 369}41.55844155844156%{ stroke-dashoffset: 0;}100%{ stroke-dashoffset: 0;}}@keyframes TuqYbEjd_draw_2{5.805958747135218%{stroke-dashoffset: 140}42.780748663101605%{ stroke-dashoffset: 0;}100%{ stroke-dashoffset: 0;}}@keyframes TuqYbEjd_draw_3{7.028265851795264%{stroke-dashoffset: 108}44.003055767761644%{ stroke-dashoffset: 0;}100%{ stroke-dashoffset: 0;}}@keyframes TuqYbEjd_draw_4{8.25057295645531%{stroke-dashoffset: 86}45.2253628724217%{ stroke-dashoffset: 0;}100%{ stroke-dashoffset: 0;}}@keyframes TuqYbEjd_draw_5{9.472880061115358%{stroke-dashoffset: 49}46.447669977081745%{ stroke-dashoffset: 0;}100%{ stroke-dashoffset: 0;}}@keyframes TuqYbEjd_draw_6{10.695187165775401%{stroke-dashoffset: 36}47.66997708174179%{ stroke-dashoffset: 0;}100%{ stroke-dashoffset: 0;}}@keyframes TuqYbEjd_draw_7{11.917494270435448%{stroke-dashoffset: 65}48.89228418640183%{ stroke-dashoffset: 0;}100%{ stroke-dashoffset: 0;}}@keyframes TuqYbEjd_draw_8{13.139801375095495%{stroke-dashoffset: 1293}50.114591291061885%{ stroke-dashoffset: 0;}100%{ stroke-dashoffset: 0;}}@keyframes TuqYbEjd_draw_9{14.36210847975554%{stroke-dashoffset: 67}51.33689839572192%{ stroke-dashoffset: 0;}100%{ stroke-dashoffset: 0;}}@keyframes TuqYbEjd_draw_10{15.584415584415586%{stroke-dashoffset: 109}52.55920550038198%{ stroke-dashoffset: 0;}100%{ stroke-dashoffset: 0;}}@keyframes TuqYbEjd_draw_11{16.80672268907563%{stroke-dashoffset: 73}53.78151260504202%{ stroke-dashoffset: 0;}100%{ stroke-dashoffset: 0;}}</style></svg>