<svg xmlns="http://www.w3.org/2000/svg" viewBox="0 0 443 443" style=""><defs><style>.cls-1,.cls-2,.cls-3,.cls-4,.cls-5,.cls-6,.cls-7{fill:none;stroke-miterlimit:10;}.cls-1,.cls-4{stroke:#2e88c8;}.cls-1{stroke-linecap:round;stroke-width:30px;}.cls-2,.cls-5{stroke:#454545;}.cls-2{stroke-width:5px;}.cls-3{stroke:#1db3b4;stroke-width:8px;}.cls-4{stroke-width:3px;}.cls-5,.cls-7{stroke-width:2.898px;}.cls-5{stroke-dasharray:25;}.cls-6,.cls-7{stroke:#b95ea4;opacity:0.2;isolation:isolate;}.cls-6{stroke-width:1.932px;}</style></defs><title>demo07</title><g id="Layer_6" data-name="Layer 6"><path class="cls-1 jLYElhbi_0" d="M58,221.5A163.5,163.5 0,1,1 385,221.5A163.5,163.5 0,1,1 58,221.5"></path></g><g id="Layer_5" data-name="Layer 5"><path class="cls-2 jLYElhbi_1" d="M236.863,207.155h-6.158V198.47a4.6,4.6,0,0,0-4.6-4.6h-9.2a4.6,4.6,0,0,0-4.6,4.6v8.685H206.5c-7.695,0-20.744,6.238-20.744,13.932v4.456h70.488v-4.456C256.244,213.393,244.557,207.155,236.863,207.155Z"></path></g><g id="Layer_4" data-name="Layer 4"><path class="cls-3 jLYElhbi_2" d="M221.5,98.874a125.015,125.015,0,0,0-35.215,244.963,124.81,124.81,0,0,1,8.756-34q.284-.7.534-1.45a23.925,23.925,0,0,0-4.536-22.633h0a23.216,23.216,0,0,1-5.283-14.743v-33.3h70.488v33.311a23.183,23.183,0,0,1-5.279,14.727l-.031.037a23.872,23.872,0,0,0-4.524,22.554q.258.776.551,1.5a124.475,124.475,0,0,1,8.783,34.282A125.019,125.019,0,0,0,221.5,98.874Z"></path></g><g id="Layer_14" data-name="Layer 14"><path class="cls-4 jLYElhbi_3" d="M219.02,170.839a1.35,1.35,0,0,1-1.69,1.177c-2.946-.781-9.488-2.684-13.486-5.149-5.075-3.13-10.132-12.246-1.4-18.325s15.256,2.017,16.429,7.863C219.8,161.01,219.311,167.806,219.02,170.839Z"></path></g><g id="Layer_13" data-name="Layer 13"><path class="cls-4 jLYElhbi_4" d="M224.363,183.206a1.347,1.347,0,0,1-1.474-1.47,30.841,30.841,0,0,1,1.464-7.4c1.244-3.171,5.856-6.94,10.161-2.647s.416,8.783-2.752,10.036A30.817,30.817,0,0,1,224.363,183.206Z"></path></g><g id="Layer_12" data-name="Layer 12"><path class="cls-4 jLYElhbi_5" d="M223.871,145.05a1.355,1.355,0,0,1-1.909.908,21.331,21.331,0,0,1-4.343-2.642c-1.888-1.644-3.357-5.766.677-7.685s6.18,1.881,6.265,4.382A21.329,21.329,0,0,1,223.871,145.05Z"></path></g><g id="Layer_11" data-name="Layer 11"><path class="cls-4 jLYElhbi_6" d="M231,161.68a1.345,1.345,0,0,1-1.681-1.2,42.551,42.551,0,0,1,.275-10.545c.943-4.419,6.162-10.348,12.724-5.661s2.442,11.4-1.432,13.726A42.548,42.548,0,0,1,231,161.68Z"></path></g><g id="Layer_10" data-name="Layer 10"><g id="Dotted_line" data-name="Dotted line"><path class="cls-5 jLYElhbi_7" d="M16,221.5A205.5,205.5 0,1,1 427,221.5A205.5,205.5 0,1,1 16,221.5"></path></g></g><g id="Layer_9" data-name="Layer 9"><g id="Circle3"><path class="cls-6 jLYElhbi_8" d="M118.274,205.637A10.363,10.363 0,1,1 139,205.637A10.363,10.363 0,1,1 118.274,205.637"></path></g></g><g id="Layer_8" data-name="Layer 8"><g id="Circle1"><path class="cls-7 jLYElhbi_9" d="M286.234,249.179A17.036,17.036 0,1,1 320.306,249.179A17.036,17.036 0,1,1 286.234,249.179"></path></g></g><g id="Layer_7" data-name="Layer 7"><g id="Circle2"><path class="cls-6 jLYElhbi_10" d="M141.791,248.471A11.377,11.377 0,1,1 164.54500000000002,248.471A11.377,11.377 0,1,1 141.791,248.471"></path></g></g><style data-made-with="vivus-instant">.jLYElhbi_0{stroke-dasharray:1028 1030;stroke-dashoffset:1029;animation:jLYElhbi_draw_0 5900ms ease-in-out 0ms infinite,jLYElhbi_fade 5900ms linear 0ms infinite;}.jLYElhbi_1{stroke-dasharray:186 188;stroke-dashoffset:187;animation:jLYElhbi_draw_1 5900ms ease-in-out 0ms infinite,jLYElhbi_fade 5900ms linear 0ms infinite;}.jLYElhbi_2{stroke-dasharray:1007 1009;stroke-dashoffset:1008;animation:jLYElhbi_draw_2 5900ms ease-in-out 0ms infinite,jLYElhbi_fade 5900ms linear 0ms infinite;}.jLYElhbi_3{stroke-dasharray:76 78;stroke-dashoffset:77;animation:jLYElhbi_draw_3 5900ms ease-in-out 0ms infinite,jLYElhbi_fade 5900ms linear 0ms infinite;}.jLYElhbi_4{stroke-dasharray:43 45;stroke-dashoffset:44;animation:jLYElhbi_draw_4 5900ms ease-in-out 0ms infinite,jLYElhbi_fade 5900ms linear 0ms infinite;}.jLYElhbi_5{stroke-dasharray:32 34;stroke-dashoffset:33;animation:jLYElhbi_draw_5 5900ms ease-in-out 0ms infinite,jLYElhbi_fade 5900ms linear 0ms infinite;}.jLYElhbi_6{stroke-dasharray:58 60;stroke-dashoffset:59;animation:jLYElhbi_draw_6 5900ms ease-in-out 0ms infinite,jLYElhbi_fade 5900ms linear 0ms infinite;}.jLYElhbi_7{stroke-dasharray:1292 1294;stroke-dashoffset:1293;animation:jLYElhbi_draw_7 5900ms ease-in-out 0ms infinite,jLYElhbi_fade 5900ms linear 0ms infinite;}.jLYElhbi_8{stroke-dasharray:66 68;stroke-dashoffset:67;animation:jLYElhbi_draw_8 5900ms ease-in-out 0ms infinite,jLYElhbi_fade 5900ms linear 0ms infinite;}.jLYElhbi_9{stroke-dasharray:108 110;stroke-dashoffset:109;animation:jLYElhbi_draw_9 5900ms ease-in-out 0ms infinite,jLYElhbi_fade 5900ms linear 0ms infinite;}.jLYElhbi_10{stroke-dasharray:72 74;stroke-dashoffset:73;animation:jLYElhbi_draw_10 5900ms ease-in-out 0ms infinite,jLYElhbi_fade 5900ms linear 0ms infinite;}@keyframes jLYElhbi_draw{100%{stroke-dashoffset:0;}}@keyframes jLYElhbi_fade{0%{stroke-opacity:1;}95.76271186440678%{stroke-opacity:1;}100%{stroke-opacity:0;}}@keyframes jLYElhbi_draw_0{4.23728813559322%{stroke-dashoffset: 1029}31.35593220338983%{ stroke-dashoffset: 0;}100%{ stroke-dashoffset: 0;}}@keyframes jLYElhbi_draw_1{5.593220338983051%{stroke-dashoffset: 187}32.71186440677966%{ stroke-dashoffset: 0;}100%{ stroke-dashoffset: 0;}}@keyframes jLYElhbi_draw_2{6.9491525423728815%{stroke-dashoffset: 1008}34.067796610169495%{ stroke-dashoffset: 0;}100%{ stroke-dashoffset: 0;}}@keyframes jLYElhbi_draw_3{8.305084745762711%{stroke-dashoffset: 77}35.42372881355932%{ stroke-dashoffset: 0;}100%{ stroke-dashoffset: 0;}}@keyframes jLYElhbi_draw_4{9.661016949152543%{stroke-dashoffset: 44}36.77966101694915%{ stroke-dashoffset: 0;}100%{ stroke-dashoffset: 0;}}@keyframes jLYElhbi_draw_5{11.016949152542372%{stroke-dashoffset: 33}38.13559322033898%{ stroke-dashoffset: 0;}100%{ stroke-dashoffset: 0;}}@keyframes jLYElhbi_draw_6{12.372881355932204%{stroke-dashoffset: 59}39.49152542372881%{ stroke-dashoffset: 0;}100%{ stroke-dashoffset: 0;}}@keyframes jLYElhbi_draw_7{13.728813559322035%{stroke-dashoffset: 1293}40.847457627118644%{ stroke-dashoffset: 0;}100%{ stroke-dashoffset: 0;}}@keyframes jLYElhbi_draw_8{15.084745762711865%{stroke-dashoffset: 67}42.20338983050848%{ stroke-dashoffset: 0;}100%{ stroke-dashoffset: 0;}}@keyframes jLYElhbi_draw_9{16.440677966101696%{stroke-dashoffset: 109}43.559322033898304%{ stroke-dashoffset: 0;}100%{ stroke-dashoffset: 0;}}@keyframes jLYElhbi_draw_10{17.796610169491526%{stroke-dashoffset: 73}44.91525423728814%{ stroke-dashoffset: 0;}100%{ stroke-dashoffset: 0;}}</style></svg>